<?xml version="1.0" encoding="UTF-8"?>
<svg id="Layer_1" xmlns="http://www.w3.org/2000/svg" xmlns:xlink="http://www.w3.org/1999/xlink" version="1.1" viewBox="0 0 1400 1400">
  <!-- Generator: Adobe Illustrator 29.5.0, SVG Export Plug-In . SVG Version: 2.1.0 Build 137)  -->
  <defs>
    <style>
      .st0 {
        fill: url(#linear-gradient);
      }
    </style>
    <linearGradient id="linear-gradient" x1="172.91" y1="784.01" x2="341.29" y2="615.63" gradientUnits="userSpaceOnUse">
      <stop offset=".17" stop-color="#664099"/>
      <stop offset=".31" stop-color="#5a388c"/>
      <stop offset=".56" stop-color="#3d246b"/>
      <stop offset=".61" stop-color="#362063"/>
      <stop offset=".93" stop-color="#010101"/>
    </linearGradient>
  </defs>
  <path class="st0" d="M285.92,613.03h-107.07c-4.91,0-8.9,3.98-8.9,8.9v40.19c0,4.91,3.98,8.9,8.9,8.9h40.38c4.91,0,8.9,3.98,8.9,8.9v39.88c0,4.91-3.98,8.9-8.9,8.9h-39.98c-4.91,0-8.9,3.98-8.9,8.9v40.19c0,4.91,3.98,8.9,8.9,8.9h40.19c4.91,0,8.9-3.98,8.9-8.9v-40.06c0-4.91,3.98-8.9,8.9-8.9h39.8c4.91,0,8.9,3.98,8.9,8.9v40.38c0,4.91,3.98,8.9,8.9,8.9h40.19c4.91,0,8.9-3.98,8.9-8.9v-156.15c0-4.91-3.98-8.9-8.9-8.9h-49.09ZM286.07,662.14l-.16-48.78,57.64,57.64h-48.59c-4.9,0-8.88-3.97-8.9-8.87Z"/>
  <g>
    <path d="M476.54,744.92c-10.36,0-18.35-2.76-23.95-8.28-5.6-5.52-8.4-12.99-8.4-22.43v-46.5h18.83v42.71c0,5.9,1.52,10.34,4.55,13.33,3.03,2.99,7.54,4.49,13.52,4.49,6.32,0,11.16-1.6,14.53-4.8,3.37-3.2,5.05-7.71,5.05-13.52v-42.21h18.83v56.99h9.48v18.83h-19.33v-12.13h-5.31c-2.95,4.38-6.63,7.73-11.06,10.05s-10,3.47-16.74,3.47Z"/>
    <path d="M544.39,773.86v-87.32h-9.35v-18.83h19.33v12.13h5.31c2.61-4.38,6.15-7.75,10.61-10.11,4.46-2.36,9.86-3.54,16.17-3.54,7.83,0,14.43,1.62,19.78,4.87,5.35,3.24,9.42,7.82,12.2,13.71,2.78,5.9,4.17,12.85,4.17,20.85s-1.37,14.96-4.11,20.85c-2.74,5.9-6.68,10.47-11.82,13.71-5.14,3.24-11.33,4.87-18.58,4.87-5.73,0-10.66-1.1-14.79-3.29-4.13-2.19-7.33-5.26-9.6-9.22h-.5v41.32h-18.83ZM583.06,728.75c6.82,0,11.98-2.04,15.48-6.13,3.5-4.08,5.24-9.75,5.24-17s-1.75-12.91-5.24-17c-3.5-4.09-8.66-6.13-15.48-6.13-5.98,0-10.79,1.71-14.41,5.12-3.62,3.41-5.43,8.07-5.43,13.96v8.09c0,5.9,1.81,10.55,5.43,13.96,3.62,3.41,8.42,5.12,14.41,5.12Z"/>
    <path d="M668.23,745.05c-10.95,0-19.59-2.29-25.91-6.89-6.32-4.59-9.73-11.01-10.24-19.27h18.32c.59,3.96,2.4,6.89,5.43,8.78,3.03,1.9,7.41,2.84,13.14,2.84,9.69,0,14.53-2.82,14.53-8.47,0-2.27-.74-4.04-2.21-5.31-1.47-1.26-3.94-2.23-7.39-2.91l-16.68-3.16c-14.83-2.86-22.24-9.86-22.24-20.98,0-7.16,2.82-12.87,8.47-17.12,5.64-4.25,13.44-6.38,23.38-6.38s17.84,2.17,23.69,6.51c5.85,4.34,9.12,10.47,9.79,18.39h-18.2c-.93-3.79-2.68-6.55-5.25-8.28-2.57-1.73-6.25-2.59-11.06-2.59-4.3,0-7.58.67-9.86,2.02-2.27,1.35-3.41,3.33-3.41,5.94,0,1.94.71,3.5,2.15,4.68,1.43,1.18,3.71,2.07,6.82,2.65l17.06,3.29c7.75,1.52,13.44,4.04,17.06,7.58,3.62,3.54,5.43,8.3,5.43,14.28,0,7.67-2.82,13.65-8.47,17.94-5.65,4.3-13.77,6.45-24.39,6.45Z"/>
    <path d="M748.85,745.05c-7.83,0-14.7-1.62-20.6-4.87-5.9-3.24-10.49-7.81-13.77-13.71-3.29-5.9-4.93-12.85-4.93-20.85s1.62-14.95,4.87-20.85c3.24-5.9,7.81-10.47,13.71-13.71,5.9-3.24,12.8-4.87,20.72-4.87,9.77,0,17.86,2.46,24.26,7.39,6.4,4.93,10.45,11.77,12.13,20.54h-18.83c-1.26-3.79-3.37-6.65-6.32-8.59-2.95-1.94-6.7-2.91-11.25-2.91-6.24,0-11.21,2-14.91,6-3.71,4-5.56,9.67-5.56,17s1.85,13,5.56,17c3.71,4,8.68,6,14.91,6,9.77,0,15.75-4.21,17.94-12.64h18.96c-1.6,9.18-5.6,16.32-12,21.42-6.4,5.1-14.7,7.65-24.89,7.65Z"/>
    <path d="M819.87,744.92c-8.85,0-15.78-2.15-20.79-6.44-5.01-4.3-7.52-9.98-7.52-17.06s2.55-13.14,7.65-17.19c5.1-4.04,12.45-6.07,22.05-6.07h23.13v-3.03c0-9.27-5.39-13.9-16.18-13.9-9.1,0-14.62,3.29-16.55,9.86h-18.83c1.52-8.09,5.33-14.26,11.44-18.51,6.11-4.25,14.09-6.38,23.95-6.38,11.12,0,19.59,2.51,25.4,7.52,5.81,5.01,8.72,12.32,8.72,21.92v29.06h8.97v18.83h-19.33v-12.13h-5.31c-2.61,4.3-6.13,7.62-10.55,9.98s-9.84,3.54-16.24,3.54ZM822.65,730.39c4.13,0,7.83-.78,11.12-2.34,3.29-1.56,5.88-3.67,7.77-6.32,1.9-2.65,2.84-5.62,2.84-8.91v-1.77h-22.11c-8.51,0-12.76,3.16-12.76,9.48,0,3.12,1.16,5.54,3.48,7.27,2.32,1.73,5.54,2.59,9.67,2.59Z"/>
    <path d="M885.83,743.53v-106.15h18.83v106.15h-18.83Z"/>
    <path d="M958.62,745.05c-8.17,0-15.25-1.62-21.23-4.87-5.98-3.24-10.59-7.83-13.84-13.77-3.24-5.94-4.87-12.95-4.87-21.04s1.6-15.06,4.8-20.91c3.2-5.85,7.75-10.36,13.65-13.52,5.9-3.16,12.8-4.74,20.72-4.74s14.41,1.5,19.97,4.49c5.56,2.99,9.86,7.29,12.89,12.89,3.03,5.6,4.55,12.24,4.55,19.9v6.57h-58.38c.67,6.4,2.88,11.31,6.63,14.72,3.75,3.41,8.74,5.12,14.97,5.12,4.63,0,8.4-.86,11.31-2.59,2.91-1.73,4.95-4.32,6.13-7.77h18.96c-1.77,8-5.83,14.26-12.19,18.77-6.36,4.51-14.39,6.76-24.07,6.76ZM937.26,697.28h39.93c-.76-5.22-2.78-9.2-6.07-11.94-3.29-2.74-7.71-4.11-13.27-4.11s-9.98,1.39-13.52,4.17-5.9,6.74-7.08,11.88Z"/>
    <path d="M1031.28,743.53c-4.97,0-8.83-1.26-11.56-3.79-2.74-2.53-4.11-6.36-4.11-11.5v-45.87h-13.4v-14.66h13.52v-22.75h18.45v22.75h18.32v14.66h-18.07v46.38h19.84v14.79h-23Z"/>
    <path d="M1101.92,745.05c-8.17,0-15.25-1.62-21.23-4.87-5.98-3.24-10.59-7.83-13.84-13.77-3.24-5.94-4.87-12.95-4.87-21.04s1.6-15.06,4.8-20.91c3.2-5.85,7.75-10.36,13.65-13.52,5.9-3.16,12.8-4.74,20.72-4.74s14.41,1.5,19.97,4.49c5.56,2.99,9.86,7.29,12.89,12.89,3.03,5.6,4.55,12.24,4.55,19.9v6.57h-58.38c.67,6.4,2.88,11.31,6.63,14.72,3.75,3.41,8.74,5.12,14.97,5.12,4.63,0,8.4-.86,11.31-2.59,2.91-1.73,4.95-4.32,6.13-7.77h18.96c-1.77,8-5.83,14.26-12.19,18.77-6.36,4.51-14.39,6.76-24.07,6.76ZM1080.56,697.28h39.93c-.76-5.22-2.78-9.2-6.07-11.94-3.29-2.74-7.71-4.11-13.27-4.11s-9.98,1.39-13.52,4.17-5.9,6.74-7.08,11.88Z"/>
    <path d="M1152.08,743.53v-106.15h18.83v59.65h.5l31.97-29.32h22.49l-32.98,29.82,35.64,46h-22.24l-26.54-34.5-8.85,7.2v27.29h-18.83Z"/>
  </g>
</svg>