<?xml version="1.0" encoding="UTF-8"?>
<svg id="Layer_1" xmlns="http://www.w3.org/2000/svg" xmlns:xlink="http://www.w3.org/1999/xlink" version="1.1" viewBox="0 0 1400 1400">
  <!-- Generator: Adobe Illustrator 29.5.0, SVG Export Plug-In . SVG Version: 2.1.0 Build 137)  -->
  <defs>
    <style>
      .st0 {
        fill: url(#linear-gradient);
      }
    </style>
    <linearGradient id="linear-gradient" x1="436.71" y1="725.96" x2="952.45" y2="210.22" gradientUnits="userSpaceOnUse">
      <stop offset=".17" stop-color="#664099"/>
      <stop offset=".31" stop-color="#5a388c"/>
      <stop offset=".56" stop-color="#3d246b"/>
      <stop offset=".61" stop-color="#362063"/>
      <stop offset=".93" stop-color="#010101"/>
    </linearGradient>
  </defs>
  <path class="st0" d="M782.84,202.24h-327.94c-15.05,0-27.25,12.2-27.25,27.25v123.1c0,15.05,12.2,27.25,27.25,27.25h123.67c15.05,0,27.25,12.2,27.25,27.25v122.13c0,15.05-12.2,27.25-27.25,27.25h-122.47c-15.05,0-27.25,12.2-27.25,27.25v123.1c0,15.05,12.2,27.25,27.25,27.25h123.1c15.05,0,27.25-12.2,27.25-27.25v-122.71c0-15.05,12.2-27.25,27.25-27.25h121.9c15.05,0,27.25,12.2,27.25,27.25v123.67c0,15.05,12.2,27.25,27.25,27.25h123.1c15.05,0,27.25-12.2,27.25-27.25V229.49c0-15.05-12.2-27.25-27.25-27.25h-150.35ZM783.32,352.67l-.48-149.4,176.56,176.56h-148.83c-15.01,0-27.2-12.15-27.25-27.16Z"/>
  <g>
    <path d="M71.11,1144.78c-18.12,0-32.07-4.83-41.85-14.46-9.79-9.65-14.7-22.72-14.7-39.21v-81.28h32.92v74.65c0,10.32,2.65,18.09,7.94,23.31,5.3,5.22,13.18,7.83,23.65,7.83,11.04,0,19.49-2.78,25.39-8.39,5.9-5.59,8.84-13.47,8.84-23.63v-73.77h32.92v99.61h16.55v32.92h-33.79v-21.2h-9.27c-5.16,7.65-11.6,13.52-19.33,17.56-7.72,4.04-17.48,6.07-29.26,6.07Z"/>
    <path d="M189.71,1195.35v-152.61h-16.35v-32.92h33.79v21.2h9.27c4.57-7.65,10.75-13.53,18.55-17.66,7.81-4.12,17.24-6.18,28.28-6.18,13.69,0,25.21,2.83,34.56,8.5s16.46,13.66,21.32,23.95c4.86,10.32,7.29,22.47,7.29,36.45s-2.4,26.14-7.17,36.45c-4.79,10.31-11.68,18.3-20.66,23.97s-19.8,8.5-32.47,8.5c-10,0-18.61-1.92-25.84-5.75-7.21-3.82-12.8-9.19-16.78-16.12h-.89v72.22h-32.9ZM257.3,1116.51c11.92,0,20.93-3.58,27.05-10.72,6.1-7.14,9.16-17.03,9.16-29.7s-3.05-22.56-9.16-29.7c-6.12-7.14-15.13-10.71-27.05-10.71-10.47,0-18.85,2.97-25.18,8.93-6.34,5.98-9.51,14.11-9.51,24.41v14.14c0,10.31,3.16,18.44,9.51,24.4,6.33,5.96,14.72,8.95,25.18,8.95Z"/>
    <path d="M406.15,1145c-19.14,0-34.24-4.01-45.28-12.03-11.04-8.04-17-19.25-17.9-33.68h32.04c1.02,6.92,4.19,12.03,9.49,15.34,5.3,3.32,12.96,4.97,22.96,4.97,16.94,0,25.41-4.92,25.41-14.8,0-3.98-1.29-7.06-3.87-9.27-2.57-2.22-6.89-3.9-12.91-5.08l-29.16-5.53c-25.92-5-38.88-17.22-38.88-36.65,0-12.53,4.94-22.5,14.8-29.93,9.87-7.45,23.49-11.15,40.86-11.15s31.19,3.79,41.42,11.36c10.24,7.59,15.95,18.31,17.11,32.15h-31.8c-1.61-6.63-4.68-11.46-9.17-14.48s-10.93-4.52-19.32-4.52c-7.51,0-13.25,1.18-17.22,3.53-3.98,2.36-5.96,5.82-5.96,10.39,0,3.39,1.25,6.1,3.75,8.16,2.49,2.06,6.47,3.61,11.92,4.63l29.82,5.75c13.55,2.65,23.49,7.06,29.82,13.25s9.49,14.51,9.49,24.96c0,13.41-4.92,23.86-14.8,31.37-9.86,7.51-24.06,11.26-42.61,11.26Z"/>
    <path d="M547.05,1145c-13.69,0-25.69-2.83-36-8.5-10.31-5.67-18.33-13.66-24.06-23.97-5.75-10.31-8.63-22.45-8.63-36.45s2.84-26.12,8.52-36.45c5.66-10.29,13.65-18.28,23.95-23.95,10.31-5.67,22.39-8.5,36.22-8.5,17.08,0,31.22,4.3,42.41,12.91,11.18,8.61,18.26,20.58,21.2,35.89h-32.9c-2.22-6.62-5.9-11.63-11.06-15.02-5.15-3.37-11.7-5.08-19.65-5.08-10.9,0-19.57,3.5-26.06,10.5-6.47,7-9.71,16.89-9.71,29.7s3.24,22.72,9.71,29.7c6.49,7,15.16,10.5,26.06,10.5,17.08,0,27.53-7.37,31.37-22.08h33.12c-2.8,16.04-9.78,28.52-20.98,37.44-11.18,8.9-25.69,13.36-43.51,13.36Z"/>
    <path d="M671.19,1144.78c-15.47,0-27.58-3.75-36.33-11.26-8.76-7.51-13.13-17.45-13.13-29.82s4.44-22.98,13.36-30.04c8.9-7.06,21.75-10.59,38.54-10.59h40.41v-5.3c0-16.2-9.41-24.3-28.27-24.3-15.9,0-25.55,5.75-28.94,17.24h-32.9c2.65-14.14,9.32-24.93,19.99-32.36,10.67-7.45,24.62-11.15,41.85-11.15,19.45,0,34.24,4.38,44.4,13.13,10.15,8.76,15.23,21.54,15.23,38.32v50.8h15.69v32.92h-33.79v-21.2h-9.28c-4.55,7.51-10.71,13.33-18.44,17.45-7.73,4.12-17.19,6.18-28.38,6.18ZM676.04,1119.37c7.21,0,13.69-1.36,19.43-4.07,5.75-2.73,10.27-6.41,13.58-11.04,3.32-4.65,4.97-9.84,4.97-15.58v-3.08h-38.64c-14.88,0-22.32,5.51-22.32,16.55,0,5.45,2.03,9.68,6.09,12.7,4.04,3.02,9.67,4.52,16.89,4.52Z"/>
    <path d="M786.48,1142.35v-185.52h32.88v185.52h-32.88Z"/>
    <path d="M913.67,1145c-14.28,0-26.65-2.83-37.1-8.5-10.45-5.67-18.5-13.69-24.16-24.08-5.69-10.39-8.53-22.64-8.53-36.77s2.81-26.32,8.4-36.56c5.59-10.23,13.55-18.12,23.87-23.63,10.29-5.53,22.37-8.28,36.21-8.28s25.18,2.6,34.9,7.83c9.71,5.22,17.22,12.73,22.53,22.53,5.3,9.79,7.96,21.39,7.96,34.78v11.49h-102.04c1.18,11.18,5.02,19.77,11.6,25.73,6.55,5.98,15.28,8.95,26.17,8.95,8.09,0,14.67-1.5,19.75-4.52s8.66-7.54,10.71-13.58h33.14c-3.1,13.98-10.19,24.91-21.32,32.79-11.12,7.88-25.15,11.82-42.09,11.82ZM876.34,1061.52h69.79c-1.31-9.12-4.86-16.09-10.58-20.87-5.75-4.79-13.49-7.19-23.2-7.19s-17.45,2.43-23.65,7.3c-6.17,4.86-10.29,11.78-12.37,20.76Z"/>
    <path d="M1040.66,1142.35c-8.69,0-15.4-2.21-20.2-6.63-4.79-4.41-7.19-11.1-7.19-20.1v-80.16h-23.39v-25.63h23.62v-39.75h32.24v39.75h32.02v25.63h-31.57v81.06h34.67v25.84h-40.2Z"/>
    <path d="M1164.11,1145c-14.28,0-26.65-2.83-37.1-8.5-10.45-5.67-18.5-13.69-24.16-24.08-5.69-10.39-8.53-22.64-8.53-36.77s2.81-26.32,8.4-36.56c5.59-10.23,13.55-18.12,23.87-23.63,10.29-5.53,22.37-8.28,36.21-8.28s25.18,2.6,34.9,7.83c9.71,5.22,17.22,12.73,22.53,22.53,5.3,9.79,7.96,21.39,7.96,34.78v11.49h-102.04c1.18,11.18,5.02,19.77,11.6,25.73,6.55,5.98,15.28,8.95,26.17,8.95,8.09,0,14.67-1.5,19.75-4.52,5.08-3.02,8.66-7.54,10.71-13.58h33.14c-3.1,13.98-10.19,24.91-21.32,32.79-11.12,7.88-25.15,11.82-42.09,11.82ZM1126.79,1061.52h69.79c-1.31-9.12-4.86-16.09-10.58-20.87-5.75-4.79-13.49-7.19-23.2-7.19s-17.45,2.43-23.65,7.3c-6.17,4.86-10.29,11.78-12.37,20.76Z"/>
    <path d="M1251.83,1142.35v-185.52h32.88v104.24h.89l55.89-51.24h39.31l-57.65,52.14,62.28,80.39h-38.89l-46.37-60.3-15.47,12.59v47.71h-32.88Z"/>
  </g>
</svg>